<?xml version="1.0" encoding="utf-8"?>
<!-- Generator: Adobe Illustrator 16.0.0, SVG Export Plug-In . SVG Version: 6.00 Build 0)  -->
<!DOCTYPE svg PUBLIC "-//W3C//DTD SVG 1.1//EN" "http://www.w3.org/Graphics/SVG/1.1/DTD/svg11.dtd">
<svg version="1.1" id="Layer_1" xmlns="http://www.w3.org/2000/svg" xmlns:xlink="http://www.w3.org/1999/xlink" x="0px" y="0px"
	 width="720px" height="503.999px" viewBox="0 0 720 503.999" enable-background="new 0 0 720 503.999" xml:space="preserve">
<symbol  id="New_Symbol" viewBox="-0.763 -0.763 1.526 1.525">
	<path fill="#FFFFFF" d="M0.763,0c0-0.421-0.342-0.762-0.763-0.762S-0.763-0.421-0.763,0S-0.421,0.763,0,0.763S0.763,0.42,0.763,0z"
		/>
</symbol>
<radialGradient id="SVGID_1_" cx="461.9951" cy="394.9932" r="406.5811" gradientUnits="userSpaceOnUse">
	<stop  offset="0.1378" style="stop-color:#692339"/>
	<stop  offset="0.232" style="stop-color:#642239"/>
	<stop  offset="0.3383" style="stop-color:#572039"/>
	<stop  offset="0.4341" style="stop-color:#441D3A"/>
	<stop  offset="0.7089" style="stop-color:#271936"/>
	<stop  offset="1" style="stop-color:#17122A"/>
</radialGradient>
<rect y="-1" fill="url(#SVGID_1_)" width="720" height="503.999"/>
<path fill="#090916" d="M19.059,433.439c0.017-0.159-0.027-0.734-0.125-1.663l3.468,6.35l-4.988-22.276l-0.686-1.352
	c-0.131-0.978-0.267-1.981-0.406-3.007l1.821,3.559l-4.027-27.096l-1.606-4.122c-0.199-1.428-0.398-2.855-0.597-4.276l3.331,7.435
	l-8.848-49.097v2.539c-0.388-2.729-0.611-4.295-0.611-4.295s-0.054,0.51-0.156,1.457c-0.066,0.616-0.159,1.424-0.274,2.396v-2.097
	L-0.5,368.862v10.376l1.049-2.108c-0.171,1.287-0.343,2.581-0.515,3.88l-0.534,1.197v55.562l7.485-0.916l12.077-1.479l-0.705-1.363
	C18.787,433.851,19.035,433.661,19.059,433.439z"/>
<path opacity="0.4" fill="#0C0C1C" d="M306.544,469.016c0.013-0.103-0.02-0.474-0.092-1.072l2.548,4.095l-3.665-14.369l-0.504-0.873
	c-0.097-0.631-0.196-1.278-0.298-1.939l1.338,2.296l-2.959-17.479l-1.18-2.659c-0.146-0.921-0.292-1.842-0.438-2.759l2.447,4.796
	l-6.501-31.672v1.638c-0.285-1.761-0.449-2.771-0.449-2.771s-0.04,0.328-0.114,0.94c-0.049,0.396-0.117,0.918-0.202,1.545v-1.353
	l-6.629,30.774l3.097-5.463c-0.125,0.83-0.251,1.664-0.379,2.502l-1.125,2.214l-3.888,14.052l2.984-2.924
	c-0.132,0.869-0.263,1.728-0.392,2.57l-1.069,1.232l-4.964,17.656l3.934-5.19c-0.467,3.039-0.749,4.87-0.749,4.87
	s0.077,0.004,0.22,0.01l-1.969,2.838l12.125-1.302l8.875-0.954l-0.519-0.88C306.345,469.281,306.526,469.158,306.544,469.016z"/>
<path opacity="0.4" fill="#0C0C1C" d="M272.197,483.207c0.018-0.159-0.027-0.734-0.125-1.663l3.486,6.35l-5.014-22.276l-0.689-1.352
	c-0.132-0.978-0.268-1.981-0.408-3.007l1.831,3.559l-4.048-27.096l-1.615-4.122c-0.2-1.428-0.4-2.855-0.6-4.276l3.349,7.435
	l-8.895-49.097v2.539c-0.39-2.729-0.614-4.295-0.614-4.295s-0.055,0.51-0.156,1.457c-0.066,0.616-0.159,1.424-0.276,2.396v-2.097
	l-9.07,47.705l4.237-8.469c-0.171,1.287-0.344,2.581-0.518,3.88l-1.539,3.432l-5.32,21.781l4.083-4.532
	c-0.182,1.348-0.361,2.678-0.537,3.984l-1.463,1.912l-6.792,27.367l5.383-8.045c-0.639,4.71-1.025,7.55-1.025,7.55
	s0.105,0.006,0.302,0.015l-2.695,4.399l16.591-2.02l12.142-1.479l-0.709-1.363C271.923,483.618,272.172,483.429,272.197,483.207z"/>
<path opacity="0.4" fill="#0C0C1C" d="M554.676,480.449c0.013-0.128-0.018-0.591-0.086-1.338l2.388,5.109l-3.435-17.924
	l-0.472-1.088c-0.091-0.786-0.183-1.594-0.278-2.419l1.253,2.863l-2.772-21.802l-1.105-3.316c-0.137-1.148-0.273-2.297-0.41-3.44
	l2.293,5.981l-6.091-39.503v2.043c-0.267-2.196-0.421-3.455-0.421-3.455s-0.037,0.41-0.107,1.172
	c-0.044,0.496-0.108,1.146-0.188,1.928v-1.688l-6.211,38.384l2.9-6.814c-0.117,1.036-0.234,2.077-0.354,3.122l-1.054,2.761
	l-3.642,17.525l2.796-3.646c-0.125,1.084-0.248,2.154-0.368,3.206l-1.002,1.538l-4.651,22.02l3.686-6.473
	c-0.437,3.789-0.701,6.074-0.701,6.074s0.072,0.005,0.207,0.012l-1.846,3.54l11.36-1.625l8.314-1.189l-0.485-1.097
	C554.489,480.78,554.659,480.628,554.676,480.449z"/>
<path opacity="0.4" fill="#0C0C1C" d="M535.538,480.158c0.011-0.092-0.017-0.421-0.079-0.951l2.183,3.631l-3.141-12.74l-0.431-0.773
	c-0.082-0.558-0.167-1.133-0.254-1.719l1.146,2.034l-2.536-15.496l-1.01-2.358c-0.125-0.816-0.25-1.633-0.375-2.445l2.096,4.252
	l-5.568-28.08v1.452c-0.242-1.561-0.384-2.456-0.384-2.456s-0.035,0.292-0.099,0.833c-0.041,0.353-0.099,0.814-0.172,1.37v-1.199
	l-5.678,27.284l2.652-4.844c-0.107,0.736-0.215,1.478-0.324,2.22l-0.964,1.963l-3.33,12.456l2.557-2.592
	c-0.113,0.771-0.228,1.532-0.336,2.279l-0.916,1.094l-4.253,15.652l3.369-4.602c-0.398,2.694-0.641,4.318-0.641,4.318
	s0.066,0.004,0.189,0.008l-1.688,2.517l10.387-1.155l7.602-0.846l-0.445-0.779C535.366,480.394,535.521,480.284,535.538,480.158z"/>
<path opacity="0.4" fill="#0C0C1C" d="M516.964,487.381c0.008-0.092-0.013-0.421-0.058-0.951l1.612,3.631l-2.321-12.74l-0.318-0.773
	c-0.06-0.558-0.123-1.133-0.188-1.719l0.847,2.034l-1.874-15.496l-0.747-2.358c-0.093-0.816-0.185-1.633-0.277-2.445l1.55,4.252
	l-4.116-28.08v1.452c-0.18-1.561-0.283-2.456-0.283-2.456s-0.026,0.292-0.073,0.833c-0.03,0.353-0.072,0.814-0.128,1.37v-1.199
	l-4.196,27.284l1.961-4.844c-0.08,0.736-0.159,1.478-0.24,2.22l-0.712,1.963l-2.462,12.456l1.891-2.592
	c-0.085,0.771-0.168,1.532-0.249,2.279l-0.677,1.094l-3.144,15.652l2.49-4.602c-0.295,2.694-0.474,4.318-0.474,4.318
	s0.049,0.004,0.141,0.008l-1.248,2.517l7.678-1.155l5.618-0.846l-0.329-0.779C516.837,487.616,516.951,487.507,516.964,487.381z"/>
<path opacity="0.4" fill="#0C0C1C" d="M401.279,475.902c0.008-0.092-0.013-0.421-0.058-0.951l1.612,3.631l-2.321-12.74l-0.318-0.773
	c-0.06-0.558-0.123-1.133-0.188-1.719l0.847,2.034l-1.874-15.496l-0.747-2.358c-0.093-0.816-0.185-1.633-0.277-2.445l1.55,4.252
	l-4.116-28.08v1.452c-0.18-1.561-0.283-2.456-0.283-2.456s-0.026,0.292-0.073,0.833c-0.03,0.353-0.072,0.814-0.128,1.37v-1.199
	l-4.196,27.284l1.961-4.844c-0.08,0.736-0.159,1.478-0.24,2.22l-0.712,1.963l-2.462,12.456l1.891-2.592
	c-0.085,0.771-0.168,1.532-0.249,2.279l-0.677,1.094l-3.144,15.652l2.49-4.602c-0.295,2.694-0.474,4.318-0.474,4.318
	s0.049,0.004,0.141,0.008l-1.248,2.517l7.678-1.155l5.618-0.846l-0.329-0.779C401.152,476.138,401.267,476.028,401.279,475.902z"/>
<path opacity="0.4" fill="#0C0C1C" d="M491.077,485.92c0.007-0.07-0.012-0.321-0.053-0.727l1.469,2.775l-2.114-9.738l-0.289-0.592
	c-0.056-0.426-0.113-0.865-0.171-1.313l0.771,1.555l-1.707-11.845l-0.68-1.803c-0.085-0.624-0.168-1.248-0.253-1.869l1.411,3.25
	l-3.748-21.464v1.109c-0.163-1.192-0.259-1.877-0.259-1.877s-0.023,0.224-0.066,0.637c-0.027,0.27-0.066,0.623-0.115,1.047v-0.916
	l-3.822,20.855l1.785-3.702c-0.072,0.562-0.145,1.129-0.218,1.696l-0.649,1.501l-2.241,9.521l1.722-1.981
	c-0.077,0.59-0.153,1.172-0.227,1.743l-0.617,0.836l-2.862,11.964l2.269-3.518c-0.27,2.06-0.433,3.302-0.433,3.302
	s0.045,0.003,0.129,0.006l-1.137,1.923l6.992-0.883l5.116-0.646l-0.3-0.596C490.962,486.1,491.065,486.017,491.077,485.92z"/>
<path opacity="0.4" fill="#0C0C1C" d="M415.577,478.819c0.007-0.07-0.012-0.321-0.053-0.727l1.469,2.775l-2.114-9.738l-0.289-0.592
	c-0.056-0.426-0.113-0.865-0.171-1.313l0.771,1.555l-1.707-11.845l-0.68-1.803c-0.085-0.624-0.168-1.248-0.253-1.869l1.411,3.25
	l-3.748-21.464v1.109c-0.163-1.192-0.259-1.877-0.259-1.877s-0.023,0.224-0.066,0.637c-0.027,0.27-0.066,0.623-0.115,1.047v-0.916
	l-3.822,20.855l1.785-3.702c-0.072,0.562-0.145,1.129-0.218,1.696l-0.649,1.501l-2.241,9.521l1.722-1.981
	c-0.077,0.59-0.153,1.172-0.227,1.743l-0.617,0.836l-2.862,11.964l2.269-3.518c-0.27,2.06-0.433,3.302-0.433,3.302
	s0.045,0.003,0.129,0.006l-1.137,1.923l6.992-0.883l5.116-0.646l-0.3-0.596C415.462,478.999,415.565,478.916,415.577,478.819z"/>
<path opacity="0.4" fill="#0C0C1C" d="M475.565,482.828c0.006-0.05-0.009-0.229-0.042-0.519l1.173,1.98l-1.688-6.948l-0.23-0.423
	c-0.045-0.304-0.091-0.617-0.137-0.937l0.615,1.109l-1.363-8.451l-0.543-1.286c-0.067-0.446-0.134-0.891-0.201-1.334l1.126,2.319
	l-2.992-15.314v0.792c-0.131-0.852-0.207-1.34-0.207-1.34s-0.019,0.159-0.053,0.454c-0.022,0.192-0.054,0.444-0.093,0.747v-0.653
	l-3.052,14.88l1.426-2.642c-0.058,0.401-0.116,0.806-0.175,1.21l-0.519,1.071l-1.789,6.793l1.375-1.414
	c-0.062,0.421-0.123,0.836-0.182,1.244l-0.492,0.596l-2.286,8.536l1.812-2.509c-0.215,1.469-0.346,2.355-0.346,2.355
	s0.036,0.002,0.104,0.004l-0.908,1.372l5.584-0.63l4.086-0.462l-0.239-0.425C475.474,482.956,475.557,482.897,475.565,482.828z"/>
<path opacity="0.4" fill="#0C0C1C" d="M429.558,478.827c0.006-0.05-0.009-0.229-0.042-0.519l1.173,1.98L429,473.341l-0.23-0.423
	c-0.045-0.304-0.091-0.617-0.137-0.937l0.615,1.109l-1.363-8.451l-0.543-1.286c-0.067-0.446-0.134-0.891-0.201-1.334l1.126,2.319
	l-2.992-15.314v0.792c-0.131-0.852-0.207-1.34-0.207-1.34s-0.019,0.159-0.053,0.454c-0.022,0.192-0.054,0.444-0.093,0.747v-0.653
	l-3.052,14.88l1.426-2.642c-0.058,0.401-0.116,0.806-0.175,1.21l-0.519,1.071l-1.789,6.793l1.375-1.414
	c-0.062,0.421-0.123,0.836-0.182,1.244l-0.492,0.596l-2.286,8.536l1.812-2.509c-0.215,1.469-0.346,2.355-0.346,2.355
	s0.036,0.002,0.104,0.004l-0.908,1.372l5.584-0.63l4.086-0.462l-0.239-0.425C429.466,478.955,429.549,478.896,429.558,478.827z"/>
<path opacity="0.4" fill="#0C0C1C" d="M282.759,471.644c0.007-0.092-0.012-0.421-0.053-0.951l1.469,3.631l-2.114-12.74l-0.289-0.773
	c-0.056-0.558-0.113-1.133-0.171-1.719l0.771,2.034l-1.707-15.496l-0.68-2.358c-0.085-0.816-0.168-1.633-0.253-2.445l1.411,4.252
	l-3.748-28.08v1.452c-0.163-1.561-0.259-2.456-0.259-2.456s-0.023,0.292-0.066,0.833c-0.027,0.353-0.066,0.814-0.115,1.37v-1.199
	l-3.822,27.284l1.785-4.844c-0.072,0.736-0.145,1.478-0.218,2.22l-0.649,1.963l-2.241,12.456l1.722-2.592
	c-0.077,0.771-0.153,1.532-0.227,2.279l-0.617,1.094l-2.862,15.652l2.269-4.602c-0.27,2.694-0.433,4.318-0.433,4.318
	s0.045,0.004,0.129,0.008l-1.137,2.517l6.992-1.155l5.116-0.846l-0.3-0.779C282.644,471.879,282.748,471.77,282.759,471.644z"/>
<path opacity="0.4" fill="#0C0C1C" d="M503.653,481.031c0.007-0.073-0.013-0.336-0.054-0.759l1.494,2.896l-2.151-10.158
	l-0.294-0.617c-0.057-0.444-0.115-0.903-0.174-1.37l0.784,1.622l-1.737-12.355l-0.691-1.881c-0.087-0.65-0.171-1.302-0.257-1.949
	l1.435,3.39l-3.812-22.389v1.157c-0.166-1.244-0.264-1.958-0.264-1.958s-0.023,0.232-0.067,0.664
	c-0.027,0.281-0.067,0.649-0.117,1.093v-0.956l-3.89,21.754l1.817-3.861c-0.074,0.587-0.147,1.178-0.222,1.77l-0.661,1.565
	l-2.28,9.932l1.752-2.067c-0.079,0.615-0.156,1.222-0.23,1.817l-0.629,0.872l-2.912,12.48l2.309-3.669
	c-0.273,2.148-0.44,3.443-0.44,3.443s0.046,0.003,0.131,0.006l-1.156,2.007l7.115-0.921l5.205-0.675l-0.306-0.621
	C503.536,481.219,503.641,481.132,503.653,481.031z"/>
<path opacity="0.4" fill="#0C0C1C" d="M599.064,473.248c0.013-0.128-0.018-0.591-0.086-1.338l2.388,5.109l-3.435-17.924
	l-0.472-1.088c-0.091-0.786-0.183-1.594-0.278-2.419l1.253,2.863l-2.772-21.802l-1.105-3.316c-0.137-1.148-0.273-2.297-0.41-3.44
	l2.293,5.981l-6.091-39.503v2.043c-0.267-2.196-0.421-3.455-0.421-3.455s-0.037,0.41-0.107,1.172
	c-0.044,0.496-0.108,1.146-0.188,1.928v-1.688l-6.211,38.384l2.9-6.814c-0.117,1.036-0.234,2.077-0.354,3.122l-1.054,2.761
	l-3.642,17.525l2.796-3.646c-0.125,1.084-0.248,2.154-0.368,3.206l-1.002,1.538l-4.651,22.02l3.686-6.473
	c-0.437,3.789-0.701,6.074-0.701,6.074s0.072,0.005,0.207,0.012l-1.846,3.54l11.36-1.625l8.314-1.189l-0.485-1.097
	C598.878,473.579,599.048,473.427,599.064,473.248z"/>
<path opacity="0.6" fill="#0C0C1C" d="M225.72,464.434c0.017-0.159-0.027-0.734-0.123-1.663l3.406,6.35l-4.898-22.276l-0.673-1.352
	c-0.129-0.978-0.262-1.981-0.398-3.007l1.789,3.559l-3.955-27.096l-1.577-4.122c-0.195-1.428-0.391-2.855-0.586-4.276l3.271,7.435
	l-8.689-49.097v2.539c-0.381-2.729-0.6-4.295-0.6-4.295s-0.053,0.51-0.153,1.457c-0.064,0.616-0.156,1.424-0.27,2.396v-2.097
	l-8.86,47.705l4.139-8.469c-0.167,1.287-0.336,2.581-0.506,3.88l-1.503,3.432l-5.197,21.781l3.989-4.532
	c-0.177,1.348-0.353,2.678-0.525,3.984l-1.429,1.912l-6.636,27.367l5.258-8.045c-0.624,4.71-1.001,7.55-1.001,7.55
	s0.104,0.006,0.295,0.015l-2.633,4.399l16.208-2.02l11.861-1.479l-0.692-1.363C225.453,464.845,225.696,464.655,225.72,464.434z"/>
<path opacity="0.6" fill="#0C0C1C" d="M639.434,454.65c0.017-0.159-0.026-0.734-0.122-1.663l3.405,6.35l-4.898-22.276l-0.673-1.352
	c-0.129-0.978-0.262-1.981-0.398-3.007l1.789,3.559l-3.955-27.096l-1.578-4.122c-0.195-1.428-0.391-2.855-0.586-4.276l3.271,7.435
	l-8.689-49.097v2.539c-0.381-2.729-0.6-4.295-0.6-4.295s-0.054,0.51-0.153,1.457c-0.064,0.616-0.155,1.424-0.27,2.396v-2.097
	l-8.86,47.705l4.139-8.469c-0.167,1.287-0.336,2.581-0.506,3.88l-1.503,3.432l-5.196,21.781l3.988-4.532
	c-0.178,1.348-0.353,2.678-0.525,3.984l-1.428,1.912l-6.637,27.367l5.259-8.045c-0.624,4.71-1.001,7.55-1.001,7.55
	s0.104,0.006,0.295,0.015l-2.633,4.399l16.208-2.02l11.861-1.479l-0.692-1.363C639.167,455.062,639.409,454.872,639.434,454.65z"/>
<path opacity="0.8" fill="#0C0C1C" d="M707.495,422.868c0.012-0.159-0.021-0.734-0.093-1.663l2.586,6.35l-3.721-22.276l-0.511-1.352
	c-0.098-0.978-0.199-1.981-0.303-3.007l1.359,3.559l-3.004-27.096l-1.199-4.122c-0.148-1.428-0.297-2.855-0.445-4.276l2.485,7.435
	l-6.6-49.097v2.539c-0.289-2.729-0.456-4.295-0.456-4.295s-0.04,0.51-0.116,1.457c-0.049,0.616-0.118,1.424-0.204,2.396v-2.097
	l-6.729,47.705l3.144-8.469c-0.127,1.287-0.256,2.581-0.385,3.88l-1.142,3.432l-3.946,21.781l3.029-4.532
	c-0.135,1.348-0.268,2.678-0.399,3.984l-1.084,1.912l-5.041,27.367l3.994-8.045c-0.474,4.71-0.761,7.55-0.761,7.55
	s0.079,0.006,0.225,0.015l-2,4.399l12.311-2.02l9.009-1.479l-0.526-1.363C707.292,423.279,707.476,423.09,707.495,422.868z"/>
<path opacity="0.8" fill="#0C0C1C" d="M138.793,449.252c0.017-0.159-0.027-0.734-0.125-1.663l3.468,6.35l-4.988-22.276l-0.686-1.352
	c-0.131-0.978-0.267-1.981-0.406-3.007l1.821,3.559l-4.027-27.096l-1.606-4.122c-0.199-1.428-0.398-2.855-0.597-4.276l3.331,7.435
	l-8.848-49.097v2.539c-0.388-2.729-0.611-4.295-0.611-4.295s-0.054,0.51-0.156,1.457c-0.066,0.616-0.159,1.424-0.274,2.396v-2.097
	l-9.021,47.705l4.214-8.469c-0.171,1.287-0.343,2.581-0.515,3.88l-1.531,3.432l-5.292,21.781l4.061-4.532
	c-0.18,1.348-0.358,2.678-0.534,3.984l-1.455,1.912l-6.756,27.367l5.354-8.045c-0.636,4.71-1.02,7.55-1.02,7.55
	s0.105,0.006,0.301,0.015l-2.681,4.399l16.504-2.02l12.077-1.479l-0.705-1.363C138.521,449.663,138.769,449.474,138.793,449.252z"/>
<path fill="#090916" d="M97.351,441.416c0.017-0.159-0.027-0.734-0.125-1.663l3.468,6.35l-4.988-22.276l-0.686-1.352
	c-0.131-0.978-0.267-1.981-0.406-3.007l1.821,3.559l-4.027-27.096l-1.606-4.122c-0.199-1.428-0.398-2.855-0.597-4.276l3.331,7.435
	l-8.848-49.097v2.539c-0.388-2.729-0.611-4.295-0.611-4.295s-0.054,0.51-0.156,1.457c-0.066,0.616-0.159,1.424-0.274,2.396v-2.097
	l-9.021,47.705l4.214-8.469c-0.171,1.287-0.343,2.581-0.515,3.88l-1.531,3.432l-5.292,21.781l4.061-4.532
	c-0.18,1.348-0.358,2.678-0.534,3.984l-1.455,1.912l-6.756,27.367l5.354-8.045c-0.636,4.71-1.02,7.55-1.02,7.55
	s0.105,0.006,0.301,0.015l-2.681,4.399l16.504-2.02l12.077-1.479l-0.705-1.363C97.078,441.827,97.326,441.638,97.351,441.416z"/>
<g opacity="0.8">
	<path fill="#0A0A1C" d="M145.287,49.158c0,0-2.965-8.432-4.206-13.751c-1.45-6.225-1.707-35.579-1.707-35.579h-2.069
		c0,0-0.174,31.684,0.812,39.74c0.986,8.056,7.17,28.669,7.17,28.669V49.158z"/>
	<rect x="145.287" y="-1" fill="#0C0C1C" width="9.538" height="452.003"/>
</g>
<g opacity="0.5">
	<path fill="#04040A" d="M648.234,50.159c0,0,4.073-8.432,5.777-13.751c1.992-6.225,2.345-35.579,2.345-35.579h2.843
		c0,0,0.239,31.684-1.116,39.74c-1.354,8.056-9.849,28.669-9.849,28.669V50.159z"/>
	<rect x="635.133" fill="#04040A" width="13.102" height="452.003"/>
</g>
<g opacity="0.9">
	<path fill="#04040A" d="M711.612,49.159c0,0,2.843-8.432,4.032-13.751c1.391-6.225,1.637-35.579,1.637-35.579h1.984
		c0,0,0.167,31.684-0.779,39.74c-0.945,8.056-6.874,28.669-6.874,28.669V49.159z"/>
	<rect x="702.468" y="-1" fill="#04040A" width="9.145" height="452.003"/>
</g>
<g opacity="0.6">
	<path fill="#0A0A1C" d="M243.31,51.54c0,0,2.965-8.694,4.206-14.18c1.45-6.419,1.707-36.688,1.707-36.688h2.069
		c0,0,0.174,32.672-0.812,40.979c-0.986,8.307-7.17,29.563-7.17,29.563V51.54z"/>
	<rect x="233.772" y="-0.183" fill="#0C0C1C" width="9.538" height="466.1"/>
</g>
<g>
	<path fill="#04040A" d="M70.471,49.159c0,0,2.965-8.432,4.206-13.751c1.45-6.225,1.707-35.579,1.707-35.579h2.069
		c0,0,0.174,31.684-0.812,39.74c-0.986,8.056-7.17,28.669-7.17,28.669V49.159z"/>
	<rect x="60.933" y="-1" opacity="0.7" fill="#04040A" width="9.538" height="452.003"/>
</g>
<path fill="#2A122D" d="M266.708,467.453C270.553,468.226,583.209,485,583.209,485v18.999H391.667L266.708,467.453"/>
<path fill="#29132D" d="M720,400.541c-9.596,2.407-79.604,32.604-112.603,51.682c-32.998,19.078-160.979,51.683-160.979,51.683H720
	V400.541z"/>
<polygon fill="#161630" points="0,436.285 55.511,424.999 448.511,503.998 0,503.999 "/>
<path fill="#D77100" d="M443.478,478.625c0,0-7.473,0.785-5.112-9.243c2.359-10.029,11.405-5.703,9.438-15.535
	s6.292,1.354,9.045,10.706S463.535,480.591,443.478,478.625z"/>
<g opacity="0.5">
	<path fill="#D5C0DD" d="M272,18.978"/>
	<g>
		<path fill="#FFFFFF" d="M272,20.208c1.587,0,1.587-2.461,0-2.461S270.413,20.208,272,20.208L272,20.208z"/>
	</g>
</g>
<g opacity="0.5">
	<path fill="#D5C0DD" d="M559,86.456"/>
	<g>
		<path fill="#FFFFFF" d="M559,87.378c1.19,0,1.19-1.846,0-1.846S557.81,87.378,559,87.378L559,87.378z"/>
	</g>
</g>
<g opacity="0.5">
	<path fill="#D5C0DD" d="M618.448,30.531"/>
	<g>
		<path fill="#FFFFFF" d="M618.448,31.762c1.587,0,1.587-2.461,0-2.461S616.861,31.762,618.448,31.762L618.448,31.762z"/>
	</g>
</g>
<g opacity="0.5">
	<path fill="#D5C0DD" d="M655.781,101.754"/>
	<g>
		<path fill="#FFFFFF" d="M655.781,102.677c1.19,0,1.19-1.846,0-1.846S654.591,102.677,655.781,102.677L655.781,102.677z"/>
	</g>
</g>
<g opacity="0.5">
	<path fill="#D5C0DD" d="M697.353,86.456"/>
	<g>
		<path fill="#FFFFFF" d="M697.353,87.686c1.587,0,1.587-2.461,0-2.461S695.766,87.686,697.353,87.686L697.353,87.686z"/>
	</g>
</g>
<g opacity="0.5">
	<path fill="#D5C0DD" d="M170.031,131.186"/>
	<g>
		<path fill="#FFFFFF" d="M170.031,132.416c1.587,0,1.587-2.461,0-2.461S168.444,132.416,170.031,132.416L170.031,132.416z"/>
	</g>
</g>
<g opacity="0.5">
	<path fill="#D5C0DD" d="M131.381,168.833"/>
	<g>
		<path fill="#FFFFFF" d="M131.381,169.756c1.19,0,1.19-1.846,0-1.846S130.19,169.756,131.381,169.756L131.381,169.756z"/>
	</g>
</g>
<g opacity="0.5">
	<path fill="#D5C0DD" d="M323,46.776"/>
	<g>
		<path fill="#FFFFFF" d="M323,47.699c1.19,0,1.19-1.846,0-1.846S321.81,47.699,323,47.699L323,47.699z"/>
	</g>
</g>
<g opacity="0.5">
	<path fill="#D5C0DD" d="M518,25.028"/>
	<g>
		<path fill="#FFFFFF" d="M518,25.951c1.19,0,1.19-1.846,0-1.846S516.81,25.951,518,25.951L518,25.951z"/>
	</g>
</g>
<g opacity="0.5">
	<path fill="#D5C0DD" d="M409,80.263"/>
	<g>
		<path fill="#FFFFFF" d="M409,81.186c1.19,0,1.19-1.846,0-1.846S407.81,81.186,409,81.186L409,81.186z"/>
	</g>
</g>
<g opacity="0.5">
	<path fill="#D5C0DD" d="M344,122.916"/>
	<g>
		<path fill="#FFFFFF" d="M344,123.839c1.19,0,1.19-1.846,0-1.846S342.81,123.839,344,123.839L344,123.839z"/>
	</g>
</g>
<g opacity="0.5">
	<path fill="#D5C0DD" d="M409,29.112"/>
	<g>
		<path fill="#FFFFFF" d="M409,30.035c1.19,0,1.19-1.846,0-1.846S407.81,30.035,409,30.035L409,30.035z"/>
	</g>
</g>
<g opacity="0.5">
	<path fill="#D5C0DD" d="M511,115"/>
	<g>
		<path fill="#FFFFFF" d="M511,115.923c1.19,0,1.19-1.846,0-1.846S509.81,115.923,511,115.923L511,115.923z"/>
	</g>
</g>
<g opacity="0.5">
	<path fill="#D5C0DD" d="M550,41.723"/>
	<g>
		<path fill="#FFFFFF" d="M550,42.646c1.19,0,1.19-1.846,0-1.846S548.81,42.646,550,42.646L550,42.646z"/>
	</g>
</g>
<g opacity="0.5">
	<path fill="#D5C0DD" d="M618.448,189.333"/>
	<g>
		<path fill="#FFFFFF" d="M618.448,190.256c1.19,0,1.19-1.846,0-1.846S617.258,190.256,618.448,190.256L618.448,190.256z"/>
	</g>
</g>
<g opacity="0.5">
	<path fill="#D5C0DD" d="M283,124"/>
	<g>
		<path fill="#FFFFFF" d="M283,124.923c1.19,0,1.19-1.846,0-1.846S281.81,124.923,283,124.923L283,124.923z"/>
	</g>
</g>
<g opacity="0.5">
	<path fill="#D5C0DD" d="M214.438,212"/>
	<g>
		<path fill="#FFFFFF" d="M214.438,212.923c1.19,0,1.19-1.846,0-1.846S213.247,212.923,214.438,212.923L214.438,212.923z"/>
	</g>
</g>
<g opacity="0.5">
	<path fill="#D5C0DD" d="M80.24,179.358"/>
	<g>
		<path fill="#FFFFFF" d="M80.24,179.974c0.793,0,0.793-1.23,0-1.23S79.447,179.974,80.24,179.974L80.24,179.974z"/>
	</g>
</g>
<g opacity="0.5">
	<path fill="#D5C0DD" d="M42.651,152"/>
	<g>
		<path fill="#FFFFFF" d="M42.651,152.615c0.793,0,0.793-1.23,0-1.23S41.857,152.615,42.651,152.615L42.651,152.615z"/>
	</g>
</g>
<g opacity="0.5">
	<path fill="#D5C0DD" d="M272,108.478"/>
	<g>
		<path fill="#FFFFFF" d="M272,109.093c0.793,0,0.793-1.23,0-1.23S271.207,109.093,272,109.093L272,109.093z"/>
	</g>
</g>
<g opacity="0.5">
	<path fill="#D5C0DD" d="M344,61.312"/>
	<g>
		<path fill="#FFFFFF" d="M344,61.928c0.793,0,0.793-1.23,0-1.23S343.207,61.928,344,61.928L344,61.928z"/>
	</g>
</g>
<g opacity="0.5">
	<path fill="#D5C0DD" d="M487,64.463"/>
	<g>
		<path fill="#FFFFFF" d="M487,65.078c0.794,0,0.794-1.23,0-1.23S486.206,65.078,487,65.078L487,65.078z"/>
	</g>
</g>
<g opacity="0.5">
	<path fill="#D5C0DD" d="M518,35.943"/>
	<g>
		<path fill="#FFFFFF" d="M518,36.559c0.794,0,0.794-1.23,0-1.23S517.206,36.559,518,36.559L518,36.559z"/>
	</g>
</g>
<g opacity="0.5">
	<path fill="#D5C0DD" d="M537,91.29"/>
	<g>
		<path fill="#FFFFFF" d="M537,91.905c0.794,0,0.794-1.23,0-1.23S536.206,91.905,537,91.905L537,91.905z"/>
	</g>
</g>
<g opacity="0.5">
	<path fill="#D5C0DD" d="M550,19.789"/>
	<g>
		<path fill="#FFFFFF" d="M550,20.404c0.794,0,0.794-1.23,0-1.23S549.206,20.404,550,20.404L550,20.404z"/>
	</g>
</g>
<g opacity="0.5">
	<path fill="#D5C0DD" d="M376,18.669"/>
	<g>
		<path fill="#FFFFFF" d="M376,19.284c0.794,0,0.794-1.23,0-1.23S375.206,19.284,376,19.284L376,19.284z"/>
	</g>
</g>
<g opacity="0.5">
	<path fill="#D5C0DD" d="M618.448,148"/>
	<g>
		<path fill="#FFFFFF" d="M618.448,148.615c0.794,0,0.794-1.23,0-1.23S617.654,148.615,618.448,148.615L618.448,148.615z"/>
	</g>
</g>
<g opacity="0.5">
	<path fill="#D5C0DD" d="M659.933,197"/>
	<g>
		<path fill="#FFFFFF" d="M659.933,197.615c0.794,0,0.794-1.23,0-1.23S659.139,197.615,659.933,197.615L659.933,197.615z"/>
	</g>
</g>
<g opacity="0.5">
	<path fill="#D5C0DD" d="M659.933,144.5"/>
	<g>
		<path fill="#FFFFFF" d="M659.933,145.115c0.794,0,0.794-1.23,0-1.23S659.139,145.115,659.933,145.115L659.933,145.115z"/>
	</g>
</g>
<g opacity="0.5">
	<path fill="#D5C0DD" d="M659.933,232.25"/>
	<g>
		<path fill="#FFFFFF" d="M659.933,232.865c0.794,0,0.794-1.23,0-1.23S659.139,232.865,659.933,232.865L659.933,232.865z"/>
	</g>
</g>
<g opacity="0.5">
	<path fill="#D5C0DD" d="M625.903,124"/>
	<g>
		<path fill="#FFFFFF" d="M625.903,124.615c0.794,0,0.794-1.23,0-1.23S625.109,124.615,625.903,124.615L625.903,124.615z"/>
	</g>
</g>
<g opacity="0.5">
	<path fill="#D5C0DD" d="M537,64.463"/>
	<g>
		<path fill="#FFFFFF" d="M537,65.078c0.794,0,0.794-1.23,0-1.23S536.206,65.078,537,65.078L537,65.078z"/>
	</g>
</g>
<g opacity="0.5">
	<path fill="#D5C0DD" d="M398,66.579"/>
	<g>
		<path fill="#FFFFFF" d="M398,67.194c0.794,0,0.794-1.23,0-1.23S397.206,67.194,398,67.194L398,67.194z"/>
	</g>
</g>
<g opacity="0.5">
	<path fill="#D5C0DD" d="M323,108.478"/>
	<g>
		<path fill="#FFFFFF" d="M323,109.093c0.793,0,0.793-1.23,0-1.23S322.207,109.093,323,109.093L323,109.093z"/>
	</g>
</g>
<g opacity="0.5">
	<path fill="#D5C0DD" d="M265,168.833"/>
	<g>
		<path fill="#FFFFFF" d="M265,169.449c0.793,0,0.793-1.23,0-1.23S264.207,169.449,265,169.449L265,169.449z"/>
	</g>
</g>
<g opacity="0.5">
	<path fill="#D5C0DD" d="M305,152"/>
	<g>
		<path fill="#FFFFFF" d="M305,152.615c0.793,0,0.793-1.23,0-1.23S304.207,152.615,305,152.615L305,152.615z"/>
	</g>
</g>
<g opacity="0.5">
	<path fill="#D5C0DD" d="M432,37.247"/>
	<g>
		<path fill="#FFFFFF" d="M432,37.862c0.794,0,0.794-1.23,0-1.23S431.206,37.862,432,37.862L432,37.862z"/>
	</g>
</g>
<g opacity="0.5">
	<path fill="#D5C0DD" d="M464,93.982"/>
	<g>
		<path fill="#FFFFFF" d="M464,94.598c0.794,0,0.794-1.23,0-1.23S463.206,94.598,464,94.598L464,94.598z"/>
	</g>
</g>
<g opacity="0.5">
	<path fill="#D5C0DD" d="M355,131.186"/>
	<g>
		<path fill="#FFFFFF" d="M355,131.801c0.793,0,0.793-1.23,0-1.23S354.207,131.801,355,131.801L355,131.801z"/>
	</g>
</g>
<g opacity="0.5">
	<path fill="#D5C0DD" d="M387.076,49.761"/>
	<g>
		<path fill="#FFFFFF" d="M387.076,50.376c0.794,0,0.794-1.23,0-1.23S386.282,50.376,387.076,50.376L387.076,50.376z"/>
	</g>
</g>
<g opacity="0.5">
	<path fill="#D5C0DD" d="M468,52.688"/>
	<g>
		<path fill="#FFFFFF" d="M468,53.303c0.794,0,0.794-1.23,0-1.23S467.206,53.303,468,53.303L468,53.303z"/>
	</g>
</g>
<g opacity="0.5">
	<path fill="#D5C0DD" d="M487,19.789"/>
	<g>
		<path fill="#FFFFFF" d="M487,20.404c0.794,0,0.794-1.23,0-1.23S486.206,20.404,487,20.404L487,20.404z"/>
	</g>
</g>
<g opacity="0.5">
	<path fill="#D5C0DD" d="M349,25.028"/>
	<g>
		<path fill="#FFFFFF" d="M349,25.643c0.793,0,0.793-1.23,0-1.23S348.207,25.643,349,25.643L349,25.643z"/>
	</g>
</g>
<g opacity="0.5">
	<path fill="#D5C0DD" d="M344,135.324"/>
	<g>
		<path fill="#FFFFFF" d="M344,135.939c0.793,0,0.793-1.23,0-1.23S343.207,135.939,344,135.939L344,135.939z"/>
	</g>
</g>
<g opacity="0.5">
	<path fill="#D5C0DD" d="M441.511,109.424"/>
	<g>
		<path fill="#FFFFFF" d="M441.511,110.04c0.794,0,0.794-1.23,0-1.23S440.717,110.04,441.511,110.04L441.511,110.04z"/>
	</g>
</g>
<g opacity="0.5">
	<path fill="#D5C0DD" d="M423.511,152.946"/>
	<g>
		<path fill="#FFFFFF" d="M423.511,153.562c0.794,0,0.794-1.23,0-1.23S422.717,153.562,423.511,153.562L423.511,153.562z"/>
	</g>
</g>
<g opacity="0.5">
	<path fill="#D5C0DD" d="M473.511,132.132"/>
	<g>
		<path fill="#FFFFFF" d="M473.511,132.747c0.794,0,0.794-1.23,0-1.23S472.717,132.747,473.511,132.747L473.511,132.747z"/>
	</g>
</g>
<g opacity="0.5">
	<path fill="#D5C0DD" d="M462.511,136.271"/>
	<g>
		<path fill="#FFFFFF" d="M462.511,136.886c0.794,0,0.794-1.23,0-1.23S461.717,136.886,462.511,136.886L462.511,136.886z"/>
	</g>
</g>
<g opacity="0.5">
	<path fill="#D5C0DD" d="M518,79.993"/>
	<g>
		<path fill="#FFFFFF" d="M518,80.608c0.794,0,0.794-1.23,0-1.23S517.206,80.608,518,80.608L518,80.608z"/>
	</g>
</g>
<g opacity="0.5">
	<path fill="#D5C0DD" d="M500,123.515"/>
	<g>
		<path fill="#FFFFFF" d="M500,124.13c0.794,0,0.794-1.23,0-1.23S499.206,124.13,500,124.13L500,124.13z"/>
	</g>
</g>
<g opacity="0.5">
	<path fill="#D5C0DD" d="M550,102.7"/>
	<g>
		<path fill="#FFFFFF" d="M550,103.315c0.794,0,0.794-1.23,0-1.23S549.206,103.315,550,103.315L550,103.315z"/>
	</g>
</g>
<g opacity="0.5">
	<path fill="#D5C0DD" d="M539,106.839"/>
	<g>
		<path fill="#FFFFFF" d="M539,107.454c0.794,0,0.794-1.23,0-1.23S538.206,107.454,539,107.454L539,107.454z"/>
	</g>
</g>
<g opacity="0.5">
	<path fill="#D5C0DD" d="M441.511,53.625"/>
	<g>
		<path fill="#FFFFFF" d="M441.511,54.24c0.794,0,0.794-1.23,0-1.23S440.717,54.24,441.511,54.24L441.511,54.24z"/>
	</g>
</g>
<g opacity="0.5">
	<path fill="#D5C0DD" d="M277,189.333"/>
	<g>
		<path fill="#FFFFFF" d="M277,189.949c0.793,0,0.793-1.23,0-1.23S276.207,189.949,277,189.949L277,189.949z"/>
	</g>
</g>
<g opacity="0.5">
	<path fill="#D5C0DD" d="M502,171.25"/>
	<g>
		<path fill="#FFFFFF" d="M502,171.865c0.794,0,0.794-1.23,0-1.23S501.206,171.865,502,171.865L502,171.865z"/>
	</g>
</g>
<g opacity="0.5">
	<path fill="#D5C0DD" d="M578.191,124"/>
	<g>
		<path fill="#FFFFFF" d="M578.191,124.615c0.793,0,0.793-1.23,0-1.23S577.398,124.615,578.191,124.615L578.191,124.615z"/>
	</g>
</g>
<g opacity="0.5">
	<path fill="#D5C0DD" d="M464,18.669"/>
	<g>
		<path fill="#FFFFFF" d="M464,19.284c0.794,0,0.794-1.23,0-1.23S463.206,19.284,464,19.284L464,19.284z"/>
	</g>
</g>
<g opacity="0.5">
	<path fill="#D5C0DD" d="M409,14.704"/>
	<g>
		<path fill="#FFFFFF" d="M409,15.319c0.794,0,0.794-1.23,0-1.23S408.206,15.319,409,15.319L409,15.319z"/>
	</g>
</g>
<g opacity="0.5">
	<path fill="#D5C0DD" d="M319,14.704"/>
	<g>
		<path fill="#FFFFFF" d="M319,15.319c0.793,0,0.793-1.23,0-1.23S318.207,15.319,319,15.319L319,15.319z"/>
	</g>
</g>
<g opacity="0.5">
	<path fill="#D5C0DD" d="M305,74.408"/>
	<g>
		<path fill="#FFFFFF" d="M305,75.023c0.793,0,0.793-1.23,0-1.23S304.207,75.023,305,75.023L305,75.023z"/>
	</g>
</g>
<g opacity="0.5">
	<path fill="#D5C0DD" d="M131.381,122.916"/>
	<g>
		<path fill="#FFFFFF" d="M131.381,123.531c0.793,0,0.793-1.23,0-1.23S130.587,123.531,131.381,123.531L131.381,123.531z"/>
	</g>
</g>
<g opacity="0.5">
	<path fill="#D5C0DD" d="M80.24,152"/>
	<g>
		<path fill="#FFFFFF" d="M80.24,152.615c0.793,0,0.793-1.23,0-1.23S79.447,152.615,80.24,152.615L80.24,152.615z"/>
	</g>
</g>
<g opacity="0.5">
	<path fill="#D5C0DD" d="M664.968,184"/>
	<g>
		<path fill="#FFFFFF" d="M664.968,184.615c0.794,0,0.794-1.23,0-1.23S664.174,184.615,664.968,184.615L664.968,184.615z"/>
	</g>
</g>
<g opacity="0.5">
	<path fill="#D5C0DD" d="M697.353,144.5"/>
	<g>
		<path fill="#FFFFFF" d="M697.353,145.115c0.794,0,0.794-1.23,0-1.23S696.559,145.115,697.353,145.115L697.353,145.115z"/>
	</g>
</g>
<g opacity="0.5">
	<path fill="#D5C0DD" d="M697.353,201"/>
	<g>
		<path fill="#FFFFFF" d="M697.353,201.615c0.794,0,0.794-1.23,0-1.23S696.559,201.615,697.353,201.615L697.353,201.615z"/>
	</g>
</g>
<g opacity="0.5">
	<path fill="#D5C0DD" d="M618.448,68.238"/>
	<g>
		<path fill="#FFFFFF" d="M618.448,68.853c0.794,0,0.794-1.23,0-1.23S617.654,68.853,618.448,68.853L618.448,68.853z"/>
	</g>
</g>
<g opacity="0.5">
	<path fill="#D5C0DD" d="M542,44.062"/>
	<g>
		<path fill="#FFFFFF" d="M542,44.678c0.794,0,0.794-1.23,0-1.23S541.206,44.678,542,44.678L542,44.678z"/>
	</g>
</g>
<g opacity="0.5">
	<path fill="#D5C0DD" d="M360,52.688"/>
	<g>
		<path fill="#FFFFFF" d="M360,53.303c0.793,0,0.793-1.23,0-1.23S359.207,53.303,360,53.303L360,53.303z"/>
	</g>
</g>
<g opacity="0.5">
	<path fill="#D5C0DD" d="M265,135.324"/>
	<g>
		<path fill="#FFFFFF" d="M265,135.939c0.793,0,0.793-1.23,0-1.23S264.207,135.939,265,135.939L265,135.939z"/>
	</g>
</g>
<g opacity="0.5">
	<path fill="#D5C0DD" d="M214.438,177.106"/>
	<g>
		<path fill="#FFFFFF" d="M214.438,177.721c0.793,0,0.793-1.23,0-1.23S213.644,177.721,214.438,177.721L214.438,177.721z"/>
	</g>
</g>
<g opacity="0.5">
	<path fill="#D5C0DD" d="M170.031,208"/>
	<g>
		<path fill="#FFFFFF" d="M170.031,208.615c0.793,0,0.793-1.23,0-1.23S169.237,208.615,170.031,208.615L170.031,208.615z"/>
	</g>
</g>
<g opacity="0.5">
	<path fill="#D5C0DD" d="M123.606,226.001"/>
	<g>
		<path fill="#FFFFFF" d="M123.606,226.617c0.793,0,0.793-1.23,0-1.23S122.813,226.617,123.606,226.617L123.606,226.617z"/>
	</g>
</g>
<g opacity="0.5">
	<path fill="#D5C0DD" d="M73.392,225.001"/>
	<g>
		<path fill="#FFFFFF" d="M73.392,225.616c0.793,0,0.793-1.23,0-1.23S72.599,225.616,73.392,225.616L73.392,225.616z"/>
	</g>
</g>
<g opacity="0.5">
	<path fill="#D5C0DD" d="M42.651,184"/>
	<g>
		<path fill="#FFFFFF" d="M42.651,184.615c0.793,0,0.793-1.23,0-1.23S41.857,184.615,42.651,184.615L42.651,184.615z"/>
	</g>
</g>
<g opacity="0.5">
	<path fill="#D5C0DD" d="M11,218.136"/>
	<g>
		<path fill="#FFFFFF" d="M11,218.751c0.793,0,0.793-1.23,0-1.23S10.207,218.751,11,218.751L11,218.751z"/>
	</g>
</g>
<g opacity="0.5">
	<path fill="#D5C0DD" d="M702.468,256"/>
	<g>
		<path fill="#FFFFFF" d="M702.468,256.615c0.794,0,0.794-1.23,0-1.23S701.674,256.615,702.468,256.615L702.468,256.615z"/>
	</g>
</g>
<g opacity="0.5">
	<path fill="#D5C0DD" d="M719.277,161"/>
	<g>
		<path fill="#FFFFFF" d="M719.277,161.615c0.793,0,0.793-1.23,0-1.23S718.484,161.615,719.277,161.615L719.277,161.615z"/>
	</g>
</g>
<g opacity="0.5">
	<path fill="#D5C0DD" d="M218.984,135.324"/>
	<g>
		<path fill="#FFFFFF" d="M218.984,135.939c0.793,0,0.793-1.23,0-1.23S218.191,135.939,218.984,135.939L218.984,135.939z"/>
	</g>
</g>
<path opacity="0.4" fill="#070711" d="M610.813,459.25c0,1,65.557-27.75,65.557-27.75l2.066,13l-67.623,24h-10.666L610.813,459.25z"
	/>
<path opacity="0.4" fill="#070711" d="M690.37,464.499c1.63,0,28.907-9.999,28.907-9.999l0.723-16l-33,13.723L690.37,464.499z"/>
<g opacity="0.5">
	<path fill="#D5C0DD" d="M249.5,81.186"/>
	<g>
		<path fill="#FFFFFF" d="M249.5,81.801c0.793,0,0.793-1.23,0-1.23S248.707,81.801,249.5,81.801L249.5,81.801z"/>
	</g>
</g>
<g opacity="0.5">
	<path fill="#D5C0DD" d="M177.015,64.463"/>
	<g>
		<path fill="#FFFFFF" d="M177.015,65.693c1.587,0,1.587-2.461,0-2.461S175.428,65.693,177.015,65.693L177.015,65.693z"/>
	</g>
</g>
<polygon opacity="0.5" fill="#070711" points="198.859,465.703 200.109,483.537 149.465,487.994 12.359,498.268 121.844,461.268 
	182.859,459.204 "/>
<g opacity="0.5">
	<path fill="#D5C0DD" d="M125.199,44.062"/>
	<g>
		<path fill="#FFFFFF" d="M125.199,45.293c1.587,0,1.587-2.461,0-2.461S123.612,45.293,125.199,45.293L125.199,45.293z"/>
	</g>
</g>
<g opacity="0.5">
	<path fill="#D5C0DD" d="M73.392,124"/>
	<g>
		<path fill="#FFFFFF" d="M73.392,124.923c1.19,0,1.19-1.846,0-1.846S72.202,124.923,73.392,124.923L73.392,124.923z"/>
	</g>
</g>
<g opacity="0.5">
	<path fill="#D5C0DD" d="M42.651,74.408"/>
	<g>
		<path fill="#FFFFFF" d="M42.651,75.639c1.587,0,1.587-2.461,0-2.461S41.064,75.639,42.651,75.639L42.651,75.639z"/>
	</g>
</g>
<g opacity="0.5">
	<path fill="#D5C0DD" d="M11,16.203"/>
	<g>
		<path fill="#FFFFFF" d="M11,17.434c1.587,0,1.587-2.461,0-2.461S9.413,17.434,11,17.434L11,17.434z"/>
	</g>
</g>
<g opacity="0.5">
	<path fill="#D5C0DD" d="M11,108.478"/>
	<g>
		<path fill="#FFFFFF" d="M11,109.401c1.19,0,1.19-1.846,0-1.846S9.81,109.401,11,109.401L11,109.401z"/>
	</g>
</g>
<g opacity="0.5">
	<path fill="#D5C0DD" d="M131.381,86.456"/>
	<g>
		<path fill="#FFFFFF" d="M131.381,87.378c1.19,0,1.19-1.846,0-1.846S130.19,87.378,131.381,87.378L131.381,87.378z"/>
	</g>
</g>
<g>
	<rect x="184" fill="#0B0B19" width="16" height="464.499"/>
	<g>
		<path fill="#090916" d="M209.402,46.776V0h-2.234v26.698c0,0-0.18,11.35-0.452,23.358
			C207.512,48.863,208.334,47.697,209.402,46.776z"/>
		<path fill="#090916" d="M206.716,50.056c-0.281,12.409-0.66,25.521-1.038,27.54c-0.745,3.973-6.207,4.966-6.207,4.966v11.421
			c0,0,1.5-0.729,4.965-2.979c4.971-3.228,4.966-6.952,4.966-14.152V46.776C208.334,47.697,207.512,48.863,206.716,50.056z"/>
		<path fill="#090916" d="M226.833,0c0,0-0.235,9.07-0.299,12.794c-0.124,7.201-2.234,10.924-4.221,15.394
			c-1.755,3.949-10.484,15.593-12.493,18.252c0.103-0.077,0.19-0.168,0.298-0.24c-0.107,0.072-0.195,0.163-0.298,0.24
			c-0.265,0.35-0.418,0.551-0.418,0.551v6.634c0,0,10.222-13.859,12.848-18.875c2.535-4.842,5.525-15.128,5.525-18.977
			c0-2.979,0-15.773,0-15.773L226.833,0z"/>
		<path fill="#090916" d="M216.05,37.955c0,0-1.557-9.892-1.309-13.616C214.989,20.615,214.714,0,214.714,0h0.668
			c0,0,0.816,16.657,0.668,18.977c-0.191,3.003,1.049,14.015,1.794,14.672s1.738,0.869,1.738,0.869L216.05,37.955z"/>
		<path fill="#090916" d="M216.276,24.087c0,0,1.667-5.648,2.313-7.569c0.663-1.971,1.862-6.579,2.235-9.683
			c0.244-2.033,0-6.835,0-6.835h0.869c0,0,0,7.333,0,8.449c0,0.993-2.562,10.304-2.708,11.297c-0.147,0.993-2.101,9.661-2.101,9.661
			L216.276,24.087z"/>
	</g>
	<path fill="#090916" d="M184,47.833c0,0-5.183-8.176-7.35-13.333c-2.535-6.036-2.984-34.499-2.984-34.499h-3.615
		c0,0-0.305,30.722,1.419,38.533C173.194,46.346,184,66.333,184,66.333V47.833z"/>
	<polygon fill="#482647" points="198,168.833 195.017,179.187 193.868,267.333 197.603,288.5 	"/>
	<polygon fill="#482647" points="197.603,298.834 197.603,418.5 193.868,405.5 193.868,279.667 	"/>
	<path fill="#482647" d="M199.471,88.833v5.149c0,0,9.222-3.577,9.576-9.78s0.355-29.369,0.355-29.369s-1.236,16-1.236,20.5
		S206.442,87,199.471,88.833z"/>
	<path fill="#482647" d="M216.276,44.019c0,0,2.443-3.272,4.58-6.874c1.598-2.694,3.161-6.34,3.733-8.045
		c1.269-3.786,2.607-9.311,2.607-9.311s-3.097,9.003-4.028,11.078c-0.378,0.843-1.996,4.376-4.183,7.696
		c-2.179,3.309-4.449,6.338-4.547,6.521L216.276,44.019z"/>
	<polygon fill="#482647" points="193.868,171.25 197.603,161.417 197.603,76.75 197.603,76.75 	"/>
</g>
<g>
	<rect x="674.37" fill="#0B0B19" width="16" height="464.499"/>
	<g>
		<path fill="#090916" d="M664.968,46.776V0h2.234v26.698c0,0,0.18,11.35,0.451,23.358
			C666.858,48.863,666.036,47.697,664.968,46.776z"/>
		<path fill="#0B0B19" d="M667.653,50.056c0.281,12.409,0.66,25.521,1.039,27.54c0.744,3.973,6.207,4.966,6.207,4.966v11.421
			c0,0-1.5-0.729-4.966-2.979c-4.972-3.228-4.966-6.952-4.966-14.152V46.776C666.036,47.697,666.858,48.863,667.653,50.056z"/>
		<path fill="#0B0B19" d="M647.536,0c0,0,0.236,9.07,0.3,12.794c0.124,7.201,2.234,10.924,4.221,15.394
			c1.755,3.949,10.483,15.593,12.493,18.252c-0.103-0.077-0.19-0.168-0.298-0.24c0.107,0.072,0.195,0.163,0.298,0.24
			c0.265,0.35,0.418,0.551,0.418,0.551v6.634c0,0-10.223-13.859-12.848-18.875c-2.535-4.842-5.525-15.128-5.525-18.977
			c0-2.979,0-15.773,0-15.773L647.536,0z"/>
		<path fill="#0B0B1C" d="M658.32,37.955c0,0,1.557-9.892,1.309-13.616C659.382,20.615,659.656,0,659.656,0h-0.668
			c0,0-0.815,16.657-0.668,18.977c0.191,3.003-1.05,14.015-1.794,14.672c-0.746,0.657-1.738,0.869-1.738,0.869L658.32,37.955z"/>
		<path fill="#0B0B1C" d="M658.095,24.087c0,0-1.667-5.648-2.313-7.569c-0.663-1.971-1.862-6.579-2.235-9.683
			c-0.244-2.033,0-6.835,0-6.835h-0.868c0,0,0,7.333,0,8.449c0,0.993,2.562,10.304,2.708,11.297s2.101,9.661,2.101,9.661
			L658.095,24.087z"/>
	</g>
	<path fill="#090916" d="M690.37,47.833c0,0,5.183-8.176,7.35-13.333c2.535-6.036,2.984-34.499,2.984-34.499h3.615
		c0,0,0.305,30.722-1.42,38.533c-1.723,7.811-12.529,27.799-12.529,27.799V47.833z"/>
	<polygon fill="#482647" points="676.37,168.833 679.354,179.187 680.503,267.333 676.767,288.5 	"/>
	<polygon fill="#482647" points="676.767,298.834 676.767,418.5 680.503,405.5 680.503,279.667 	"/>
	<path fill="#482647" d="M674.899,88.833v5.149c0,0-9.223-3.577-9.576-9.78c-0.354-6.203-0.355-29.369-0.355-29.369
		s1.236,16,1.236,20.5S667.928,87,674.899,88.833z"/>
	<path fill="#482647" d="M658.095,44.019c-0.001,0-2.443-3.272-4.58-6.874c-1.598-2.694-3.161-6.34-3.732-8.045
		c-1.27-3.786-2.607-9.311-2.607-9.311s3.097,9.003,4.028,11.078c0.378,0.843,1.995,4.376,4.183,7.696
		c2.18,3.309,4.449,6.338,4.547,6.521L658.095,44.019z"/>
	<polygon fill="#482647" points="680.503,171.25 676.767,161.417 676.767,76.75 676.767,76.75 	"/>
</g>
<g>
	<rect x="600.147" y="-1" fill="#0B0B19" width="10.666" height="469.5"/>
	<g>
		<path fill="#0B0B19" d="M584.96,55.879c-2.418-1.753-4.471-3.873-6.754-5.761c0.086,5.92,0.618,15.149,2.953,19.632
			c3.595,6.901,16.85,18.064,18.261,27.439c1.415,9.375,1.786,11.289,1.786,11.289V77.5C601.206,77.5,586.515,59.042,584.96,55.879z
			"/>
		<g>
			<path fill="#0B0B19" d="M584.87,55.689c-1.004-2.554-2.002-17.853-1.973-22.822l-1.206-33.403l-3.195-0.018l-0.254,45.247
				c0,0-0.083,2.233-0.036,5.426c2.283,1.888,4.336,4.007,6.754,5.761C584.927,55.812,584.891,55.742,584.87,55.689z"/>
			<path fill="#0B0B19" d="M582.897,32.867c0,0,10.004-11.413,11.924-12.741c1.92-1.328,2.41-20.575,2.41-20.575l-2.102-0.012
				c0,0-0.271,13.953-1.433,16.69c-1.162,2.737-11.066,9.185-11.066,9.185L582.897,32.867z"/>
		</g>
		<path fill="#0B0B19" d="M568.766,39.26c-0.487-2.917,1.681-1.725,1.772-18.124c0.021-3.843-0.067-21.736-0.067-21.736
			l-1.938-0.011c0,0,0.05,20.397-0.136,24.22c-0.155,3.186-0.567,8.044-1.475,9.461C566.645,35.549,567.401,37.518,568.766,39.26z"
			/>
		<path fill="#0B0B19" d="M578.176,51c0,0-8.338-7.247-9.271-11.076c-0.06-0.246-0.105-0.464-0.139-0.664
			c-1.364-1.743-2.121-3.711-1.844-6.189c-0.181,0.283-0.38,0.442-0.603,0.409c-1.336-0.199-1.391-34.111-1.391-34.111l-1.721-0.01
			c0,0,0.181,35.692,1.303,40.095s13.368,21.149,15.24,26.279C581.627,70.863,578.176,51,578.176,51z"/>
	</g>
	<g>
		<path fill="#0B0B19" d="M610.813,104.89c0,0,8.959-11.448,9.457-18.913c0.499-7.466,1.494-85.697,1.494-85.697h4.139
			c0,0,0.404,80.969,0,89.181c-0.407,8.213-5.686,23.524-12.352,32.104c-1.659,2.135-2.611,9.621-2.611,9.621L610.813,104.89z"/>
		<path fill="#0C0C1E" d="M626,23.512c0,0,7.709-9.296,8.456-12.362c0.746-3.067,1.244-10.87,1.244-10.87h1.244
			c0,0,0.747,12.033,0,13.526c-0.746,1.494-11.041,16.725-11.041,16.725L626,23.512z"/>
	</g>
	<polygon fill="#482647" points="601.979,189.333 604.29,199.687 605.181,287.834 602.286,309 	"/>
	<polygon fill="#482647" points="602.286,321.717 602.286,456.263 605.181,441.646 605.181,300.168 	"/>
	<polygon fill="#482647" points="605.181,191.75 602.286,181.917 602.286,97.25 602.286,97.25 	"/>
	<path fill="#482647" d="M599.438,90.5l-16.454-22.036c0.206,0.362,1.037,3.286,1.037,3.286l15.417,20.312V90.5z"/>
	<path fill="#482647" d="M567.626,44.062c0.125,0.188,11.062,15.875,11.062,15.875l-0.497,1.375L567.626,44.062z"/>
</g>
<g>
	<path fill="#04040A" d="M35.666,47.635c0,0,5.183-8.176,7.35-13.333C45.551,28.266,46-0.197,46-0.197h3.615
		c0,0,0.305,30.722-1.419,38.533c-1.723,7.811-12.529,27.799-12.529,27.799V47.635z"/>
	<rect x="19" y="-1" fill="#04040A" width="16.667" height="438.272"/>
</g>
<g>
	<rect x="94" y="-0.273" fill="#070711" width="18.494" height="437.545"/>
	<g>
		<path fill="#070711" d="M131.381,52.735c3.007-1.634,5.56-3.609,8.399-5.369c-0.107,5.517-0.769,14.118-3.673,18.295
			c-4.47,6.432-20.954,16.835-22.709,25.571c-1.76,8.737-2.221,10.521-2.221,10.521v-28.87
			C111.177,72.884,129.447,55.683,131.381,52.735z"/>
		<g>
			<path fill="#070711" d="M131.493,52.558c1.249-2.38,2.49-16.637,2.453-21.269l1.5-31.13l3.974-0.017l0.316,42.167
				c0,0,0.103,2.082,0.045,5.057c-2.84,1.759-5.393,3.734-8.399,5.369C131.422,52.673,131.467,52.607,131.493,52.558z"/>
			<path fill="#070711" d="M133.946,31.289c0,0-12.441-10.636-14.829-11.874c-2.387-1.238-2.997-19.175-2.997-19.175l2.613-0.011
				c0,0,0.338,13.003,1.782,15.554c1.445,2.551,13.762,8.56,13.762,8.56L133.946,31.289z"/>
		</g>
		<path fill="#0E0E23" d="M151.52,37.247c0.606-2.718-2.09-1.607-2.204-16.89C149.289,16.776,149.4,0.1,149.4,0.1l2.411-0.01
			c0,0-0.062,19.009,0.169,22.572c0.193,2.969,0.705,7.496,1.833,8.817C154.158,33.788,153.217,35.623,151.52,37.247z"/>
		<path fill="#070711" d="M139.818,48.188c0,0,10.369-6.753,11.53-10.322c0.074-0.229,0.131-0.433,0.172-0.619
			c1.697-1.624,2.638-3.459,2.293-5.768c0.225,0.264,0.473,0.412,0.75,0.381c1.661-0.185,1.729-31.79,1.729-31.79l2.14-0.009
			c0,0-0.225,33.263-1.62,37.366c-1.396,4.103-16.625,19.709-18.953,24.49C135.526,66.699,139.818,48.188,139.818,48.188z"/>
	</g>
	<g>
		<path fill="#070711" d="M99.229,98.41c0,0-11.142-10.668-11.761-17.626C86.848,73.826,85.611,0.92,85.611,0.92h-5.147
			c0,0-0.503,75.458,0,83.111c0.506,7.654,7.07,21.923,15.36,29.918c2.063,1.989,3.248,8.966,3.248,8.966L99.229,98.41z"/>
		<path fill="#090916" d="M80.344,22.57c0,0-9.587-8.663-10.516-11.521C68.9,8.191,68.28,0.92,68.28,0.92h-1.547
			c0,0-0.929,11.214,0,12.605c0.928,1.392,13.73,15.587,13.73,15.587L80.344,22.57z"/>
	</g>
	<polygon opacity="0.6" fill="#482647" points="110.215,177.106 107.342,186.754 106.234,268.903 109.834,288.628 	"/>
	<polygon opacity="0.6" fill="#482647" points="109.834,300.479 109.834,425.867 106.234,412.247 106.234,280.397 	"/>
	<polygon opacity="0.6" fill="#482647" points="106.234,179.358 109.834,170.194 109.834,91.29 109.834,91.29 	"/>
	<path opacity="0.6" fill="#482647" d="M113.375,85l20.462-20.537c-0.256,0.338-1.29,3.062-1.29,3.062l-19.172,18.93V85z"/>
	<path opacity="0.6" fill="#482647" d="M152.938,41.723c-0.155,0.175-13.757,14.794-13.757,14.794l0.618,1.281L152.938,41.723z"/>
</g>
<path opacity="0.6" fill="#482647" d="M218.589,464.499c1.745-0.166,90.412,17.834,90.412,17.834l-58-7.448l-42.94-6.385
	L218.589,464.499z"/>
<polygon opacity="0.6" fill="#482647" points="119.667,443 177.015,456.263 121,449.631 94,445.333 "/>
<polygon opacity="0.5" fill="#070711" points="35.667,437.272 0,454.207 0,436.285 19,435 "/>
<path opacity="0.5" fill="#070711" d="M114.889,437.381l-57.953,12.25L11,452.223l85.395-19.378
	C98.895,432.608,114.889,437.381,114.889,437.381z"/>
<polygon fill="#090916" points="94,454.31 0,487.522 0,459.204 38.09,451.002 "/>
<path fill="#190B1C" d="M720,503.905c0-5.57,0-35.405,0-35.405l-22.645,17.918l-75.729-0.496l-76.31,3.966l-93.651,14.447
	L720,503.905z"/>
<g opacity="0.7">
	<circle fill="#F4DFBB" cx="278.168" cy="60.084" r="19.606"/>
	<circle fill="#E0CEB6" cx="285.296" cy="49.668" r="3.363"/>
	<circle fill="#E0CEB6" cx="290.312" cy="56.137" r="1.664"/>
	<circle fill="#E0CEB6" cx="283.266" cy="59.443" r="2.135"/>
</g>
<g opacity="0.05">
	<path fill="#F4DFBB" d="M439.138,452.049c2.5-5.5,5-14,5-20.5c0-13.5-8-19.5-15-30c-14.5-22.5-5.248-43.86,9.752-64.36
		c14.5-20.5,17.367-39.696-10.752-72.64c5.5,4,33.994,10.412,39.314,25.672c6.686,19.177-5.151,28.151-9.151,39.651
		c-4,10-16.327,19.376-15.327,30.376c1.5,14.5,25.164,17.801,27.664,30.301c2.5,14.5-10,26.5-12.5,39.5c-2,11.5,6.5,25.5,0.5,35.5
		c1.5-6.5,3.5-16.5-3.5-20.5c-7-4.5-13.5,3-15,7"/>
</g>
<g>
	<g>
		<path fill="#04040C" d="M155.638,281.478c0,0-0.137,0.986-0.393,2.817c-3.271,23.412-32.261,187.348-32.261,187.348l0,0
			c0,0,65.528,2.63,66.186-1.972C189.828,465.068,155.638,281.478,155.638,281.478z"/>
		<path fill="#101028" d="M156.085,345.219l-7.89,15.779c0,0,7.868,49.604,5.816,35.383c-0.162-1.121-0.972,34.773-0.995,34.189
			c-0.023-0.584,6.575-1.096,6.575-1.096s-0.697-26.994,0.225-30.776c3.254-13.36,6.352-34.631,6.352-34.631L156.085,345.219z"/>
		<polygon fill="#090916" points="145.274,361.107 150.605,394.188 123.868,417.029 137.237,374.903 		"/>
		<polygon fill="#101028" points="169.236,367.061 169.236,367.061 163.189,398.698 186.86,434.104 176.686,381.696 		"/>
		<polygon fill="#090916" points="149.686,399.694 149.951,398.698 129.104,419.668 112.033,472.6 148.195,431.008 		"/>
		<polygon fill="#101028" points="161.783,400.582 161.783,400.582 185.015,435.649 197.616,478.735 163.261,430.579 		"/>
		<polygon fill="#090916" points="154.552,284.873 154.552,342.075 131.759,377.141 		"/>
		<polygon fill="#101028" points="157.182,284.873 179.535,379.833 157.182,341.636 		"/>
		<path fill="#101028" d="M161.442,432.346h-3.221c1.457,14.643,0.807,29.285,0.445,43.928l30.513-2.858L161.442,432.346z"/>
		<path fill="#090916" d="M158.221,432.346h-3.17l-38.081,47.834l41.696-3.906C159.028,461.631,159.678,446.988,158.221,432.346z"/>
	</g>
	<polygon fill="#482647" points="162.333,317.334 173,361.107 164.75,339.221 	"/>
	<polygon fill="#482647" points="173,378.215 175.024,383.333 182.333,419.871 173,387.898 	"/>
	<path fill="#482647" d="M177.015,428.393l6.818,10.966c0,0,10.034,29.815,10.034,31.5
		C193.868,471.692,177.015,428.393,177.015,428.393z"/>
</g>
<g>
	<g>
		<path fill="#04040C" d="M570.016,367.536c0,0,0.089,0.638,0.254,1.82c2.112,15.126,20.842,121.038,20.842,121.038l0,0
			c0,0-42.334,1.699-42.76-1.274C547.927,486.147,570.016,367.536,570.016,367.536z"/>
		<path fill="#101028" d="M569.728,408.717l5.096,10.194c0,0-5.082,32.047-3.757,22.859c0.104-0.724,0.628,22.466,0.643,22.089
			c0.016-0.378-4.247-0.708-4.247-0.708s0.45-17.439-0.145-19.884c-2.104-8.631-4.104-22.373-4.104-22.373L569.728,408.717z"/>
		<polygon fill="#090916" points="576.711,418.982 573.267,440.354 590.541,455.111 581.904,427.896 		"/>
		<polygon fill="#101028" points="561.229,422.828 561.229,422.828 565.137,443.268 549.845,466.142 556.417,432.284 		"/>
		<polygon fill="#090916" points="573.861,443.911 573.689,443.268 587.158,456.815 598.187,491.013 574.823,464.142 		"/>
		<polygon fill="#15152D" points="566.046,444.485 566.046,444.485 551.037,467.141 542.896,494.977 565.091,463.865 		"/>
		<polygon fill="#090916" points="570.718,369.73 570.718,406.687 585.442,429.341 		"/>
		<polygon fill="#15152D" points="569.018,369.73 554.576,431.08 569.018,406.402 		"/>
		<path fill="#15152D" d="M566.266,465.006h2.081c-0.941,9.46-0.521,18.92-0.288,28.38l-19.713-1.847L566.266,465.006z"/>
		<path fill="#090916" d="M568.347,465.006h2.048l24.602,30.904l-26.938-2.524C567.825,483.926,567.405,474.466,568.347,465.006z"/>
	</g>
	<polygon fill="#482647" points="565.689,390.702 558.799,418.982 564.128,404.842 	"/>
	<polygon fill="#482647" points="558.799,430.034 557.491,433.341 552.769,456.947 558.799,436.291 	"/>
	<path fill="#482647" d="M556.205,462.452l-4.405,7.085c0,0-6.482,19.263-6.482,20.351
		C545.317,490.427,556.205,462.452,556.205,462.452z"/>
</g>
<g>
	<g>
		<path fill="#04040C" d="M57.081,302.258c0,0-0.109,0.784-0.312,2.24c-2.601,18.62-25.657,148.996-25.657,148.996l0,0
			c0,0,52.114,2.092,52.637-1.567C84.271,448.267,57.081,302.258,57.081,302.258z"/>
		<path fill="#090916" d="M57.436,352.951L51.161,365.5c0,0,6.257,39.449,4.625,28.14c-0.129-0.892-0.773,27.655-0.792,27.19
			s5.229-0.871,5.229-0.871s-0.555-21.469,0.179-24.477c2.588-10.625,5.051-27.541,5.051-27.541L57.436,352.951z"/>
		<polygon fill="#04040C" points="48.838,365.587 53.078,391.896 31.814,410.062 42.446,376.559 		"/>
		<polygon fill="#101028" points="67.895,370.321 67.895,370.321 63.085,395.482 81.911,423.64 73.819,381.961 		"/>
		<polygon fill="#04040C" points="52.347,396.274 52.557,395.482 35.978,412.159 22.402,454.256 51.161,421.178 		"/>
		<polygon fill="#101028" points="61.967,396.98 61.967,396.98 80.443,424.869 90.465,459.136 63.143,420.837 		"/>
		<polygon fill="#04040C" points="56.216,304.958 56.216,350.451 38.09,378.338 		"/>
		<polygon fill="#101028" points="58.308,304.958 76.085,380.479 58.308,350.102 		"/>
		<path fill="#101028" d="M61.697,422.242h-2.562c1.158,11.646,0.642,23.29,0.354,34.936l24.267-2.273L61.697,422.242z"/>
		<path fill="#04040C" d="M59.135,422.242h-2.521l-30.285,38.042l33.16-3.106C59.776,445.532,60.293,433.888,59.135,422.242z"/>
	</g>
	<polygon fill="#482647" points="62.405,330.774 70.888,365.587 64.327,348.181 	"/>
	<polygon fill="#482647" points="70.888,379.192 72.498,383.263 78.311,412.321 70.888,386.894 	"/>
	<path fill="#482647" d="M74.082,419.099l5.422,8.721c0,0,7.98,23.712,7.98,25.052C87.484,453.534,74.082,419.099,74.082,419.099z"
		/>
</g>
<g>
	<g>
		<path fill="#04040C" d="M652.031,335.309c0,0,0.109,0.784,0.312,2.24C654.945,356.169,678,486.545,678,486.545l0,0
			c0,0-52.113,2.092-52.637-1.567C624.841,481.317,652.031,335.309,652.031,335.309z"/>
		<path fill="#101028" d="M651.676,386.002l6.275,12.549c0,0-6.258,39.449-4.626,28.14c0.129-0.892,0.772,27.655,0.792,27.19
			c0.018-0.465-5.229-0.871-5.229-0.871s0.555-21.469-0.179-24.477c-2.588-10.625-5.051-27.541-5.051-27.541L651.676,386.002z"/>
		<polygon fill="#04040C" points="660.273,398.638 656.033,424.946 677.298,443.112 666.666,409.609 		"/>
		<polygon fill="#15152D" points="641.217,403.372 641.217,403.372 646.026,428.533 627.201,456.69 635.293,415.012 		"/>
		<polygon fill="#04040C" points="656.766,429.325 656.555,428.533 673.135,445.21 686.71,487.307 657.951,454.229 		"/>
		<polygon fill="#15152D" points="647.145,430.031 647.145,430.031 628.668,457.92 618.646,492.187 645.969,453.888 		"/>
		<polygon fill="#04040C" points="652.896,338.009 652.896,383.502 671.021,411.389 		"/>
		<polygon fill="#15152D" points="650.804,338.009 633.026,413.53 650.804,383.152 		"/>
		<path fill="#15152D" d="M647.415,455.293h2.562c-1.158,11.646-0.641,23.29-0.354,34.936l-24.268-2.273L647.415,455.293z"/>
		<path fill="#04040C" d="M649.977,455.293h2.521l30.285,38.042l-33.16-3.106C649.336,478.583,648.818,466.938,649.977,455.293z"/>
	</g>
	<polygon fill="#482647" points="646.707,363.825 638.224,398.638 644.785,381.231 	"/>
	<polygon fill="#482647" points="638.224,412.243 636.613,416.313 630.801,445.372 638.224,419.944 	"/>
	<path fill="#482647" d="M635.03,452.149l-5.423,8.721c0,0-7.98,23.712-7.98,25.052C621.627,486.585,635.03,452.149,635.03,452.149z
		"/>
</g>
<polygon fill="#080816" points="432,502.999 360,495.91 311.463,499.455 197.603,495.91 43.092,502.999 "/>
<path fill="#E6B700" d="M447.48,478.918c0,0-7.355-2.543-5.355-8.168s8.75-7.625,8.375-11.375s5.875,10.125,5.125,13.875
	S453.336,478.336,447.48,478.918z"/>
<path fill="#321935" d="M319,431.5c2-0.5,57-0.923,57-0.923v49.881c0,0-70.278-6.433-72-6.144L319,431.5z"/>
<polyline fill="#431F3D" points="376,430.577 376,480.458 382.5,474.751 376,430.577 "/>
<path opacity="0.05" fill="#F4DFBB" d="M451.666,436.29c0,0,1.17-19.341-5.248-25.065s-20.79-30.491-14.418-50.117
	c2.5-7.7,0.694,22.131,19.666,25.786S454.332,425.58,451.666,436.29z"/>
<g opacity="0.5">
	
		<rect x="358.792" y="429.1" transform="matrix(0.9238 0.3828 -0.3828 0.9238 201.6006 -102.8716)" fill="#070711" width="1" height="52.074"/>
</g>
<g opacity="0.5">
	
		<rect x="317.03" y="429.686" transform="matrix(0.9238 0.3828 -0.3828 0.9238 197.6068 -87.0464)" fill="#070711" width="1" height="46.657"/>
</g>
<polygon opacity="0.4" fill="#070711" points="376,480.458 353.111,484.821 304,474.314 "/>
</svg>
